# xmcd
#
# Track frame offsets:
# 150
# 20579
# 48308
# 74813
# 99236
# 119040
# 137657
# 158979
# 175440
# 192831
# 214032
# 233369
# 254149
# 278223
# 293263
# 311336
#
# Disc length: 4334 seconds
#
# Revision: 0
# Processed by: cddbd v1.5.1PL0 Copyright (c) Steve Scherf et al.
# Submitted via: Audion 3.0.2 (http://www.panic.com/audion/)
#
DISCID=eb10ec10
DTITLE=Robert Harris - Archangel
DYEAR=1900
DGENRE=
TTITLE0=Archangel 05 - 01
TTITLE1=Archangel 05 - 02
TTITLE2=Archangel 05 - 03
TTITLE3=Archangel 05 - 04
TTITLE4=Archangel 05 - 05
TTITLE5=Archangel 05 - 06
TTITLE6=Archangel 05 - 07
TTITLE7=Archangel 05 - 08
TTITLE8=Archangel 05 - 09
TTITLE9=Archangel 05 - 10
TTITLE10=Archangel 05 - 11
TTITLE11=Archangel 05 - 12
TTITLE12=Archangel 05 - 13
TTITLE13=Archangel 05 - 04
TTITLE14=Archangel 05 - 15
TTITLE15=Archangel 05 - 16
EXTD=
EXTT0=
EXTT1=
EXTT2=
EXTT3=
EXTT4=
EXTT5=
EXTT6=
EXTT7=
EXTT8=
EXTT9=
EXTT10=
EXTT11=
EXTT12=
EXTT13=
EXTT14=
EXTT15=
PLAYORDER=
